<svg width="20" height="20" viewBox="0 0 20 20" fill="none" xmlns="http://www.w3.org/2000/svg">
<path fill-rule="evenodd" clip-rule="evenodd" d="M1 0.25C0.585786 0.25 0.25 0.585786 0.25 1C0.25 1.41421 0.585786 1.75 1 1.75H2.38515L2.66456 3.14709L4.18585 10.7535L2.17678 12.7626C1.27537 13.664 1.63299 15.0885 2.64564 15.5781C2.39453 15.993 2.25 16.4796 2.25 17C2.25 18.5188 3.48122 19.75 5 19.75C6.51878 19.75 7.75 18.5188 7.75 17C7.75 16.5499 7.64186 16.125 7.45015 15.75H12.5499C12.3581 16.125 12.25 16.5499 12.25 17C12.25 18.5188 13.4812 19.75 15 19.75C16.5188 19.75 17.75 18.5188 17.75 17C17.75 15.4812 16.5188 14.25 15 14.25H5H3.41421C3.19149 14.25 3.07995 13.9807 3.23744 13.8232L5.31066 11.75H15C15.2841 11.75 15.5438 11.5895 15.6708 11.3354L19.6641 3.34891C19.6931 3.29373 19.7155 3.23448 19.7301 3.17224C19.7765 2.97626 19.7409 2.77242 19.6382 2.6058C19.5829 2.51608 19.5081 2.43715 19.4163 2.37605C19.3431 2.32709 19.2607 2.29068 19.1724 2.2699C19.1102 2.25517 19.0472 2.24869 18.9849 2.25H4.01485L3.73544 0.852913C3.66532 0.502345 3.35751 0.25 3 0.25H1ZM4.31485 3.75L5.61485 10.25H14.5365L17.7865 3.75H4.31485ZM3.75 17C3.75 16.3096 4.30964 15.75 5 15.75C5.69036 15.75 6.25 16.3096 6.25 17C6.25 17.6904 5.69036 18.25 5 18.25C4.30964 18.25 3.75 17.6904 3.75 17ZM13.75 17C13.75 16.3096 14.3096 15.75 15 15.75C15.6904 15.75 16.25 16.3096 16.25 17C16.25 17.6904 15.6904 18.25 15 18.25C14.3096 18.25 13.75 17.6904 13.75 17Z" fill="#0B2341"/>
</svg>
